<?xml version="1.0" encoding="iso-8859-1"?>
<!-- Generator: Adobe Illustrator 19.0.0, SVG Export Plug-In . SVG Version: 6.00 Build 0)  -->
<svg version="1.1" id="Layer_1" xmlns="http://www.w3.org/2000/svg" xmlns:xlink="http://www.w3.org/1999/xlink" x="0px" y="0px"
	 viewBox="0 0 512 512" style="enable-background:new 0 0 512 512;" xml:space="preserve">
<g>
	<g>
		<path fill="#fff" d="M172.904,16.987c-5.879,12.056-13.311,31.868-20.034,53.523c1.074-0.036,40.652-0.081,40.652-0.081
			C186.563,48.791,178.913,29.003,172.904,16.987z"/>
	</g>
</g>
<g>
	<g>
		<path fill="#fff" d="M330.927,332.671H181.073c-30.986,0-56.195,25.209-56.195,56.195v49.951c0,30.986,25.209,56.195,56.195,56.195h149.854
			c30.986,0,56.195-25.209,56.195-56.195v-49.951C387.122,357.881,361.913,332.671,330.927,332.671z M199.805,438.818h-37.463
			v-49.951h37.463V438.818z M349.659,438.818h-37.463v-49.951h37.463V438.818z"/>
	</g>
</g>
<g>
	<g>
		<path fill="#fff" d="M355.902,107.891H156.098c-24.42,0-45.241,15.661-52.973,37.463h40.485c44.758,0,81.171,36.413,81.171,81.171v68.683
			h62.439v-68.683c0-44.758,36.413-81.171,81.171-81.171h40.485C401.143,123.552,380.322,107.891,355.902,107.891z"/>
	</g>
</g>
<g>
	<g>
		<path fill="#fff" d="M143.61,182.818H99.902v106.146c0,13.07,5.784,25.142,15.395,33.307c16.926-16.72,40.162-27.064,65.776-27.064h6.244
			v-68.683C187.317,202.425,167.71,182.818,143.61,182.818z M137.366,257.745h-0.003c-13.77,0-24.973-11.204-24.973-24.976
			c0.005-13.774,11.209-24.976,24.976-24.976c13.772,0,24.976,11.204,24.976,24.976S151.137,257.745,137.366,257.745z"/>
	</g>
</g>
<g>
	<g>
		<path fill="#fff" d="M18.732,82.915H0v18.732c0,24.1,19.607,43.707,43.707,43.707h18.732v-18.732C62.439,102.522,42.832,82.915,18.732,82.915z
			"/>
	</g>
</g>
<g>
	<g>
		<path fill="#fff" d="M338.361,16.987c-5.872,12.041-13.291,31.818-20.008,53.44c0,0,39.619,0.045,40.652,0.079
			C352.04,48.84,344.377,29.018,338.361,16.987z"/>
	</g>
</g>
<g>
	<g>
		<path fill="#fff" d="M493.268,82.915c-24.1,0-43.707,19.607-43.707,43.707v18.732h18.732c24.1,0,43.707-19.607,43.707-43.707V82.915H493.268z"
			/>
	</g>
</g>
<g>
	<g>
		<path fill="#fff" d="M368.39,182.818c-24.1,0-43.707,19.607-43.707,43.707v68.683h6.244c25.614,0,48.852,10.345,65.777,27.065
			c9.609-8.164,15.394-20.238,15.394-33.307V182.818H368.39z M374.634,257.745h-0.003c-13.77,0-24.973-11.204-24.973-24.976
			c0.005-13.774,11.209-24.976,24.976-24.976c13.772,0,24.976,11.204,24.976,24.976S388.406,257.745,374.634,257.745z"/>
	</g>
</g>
</svg>
