<?xml version="1.0" encoding="utf-8"?>
<!DOCTYPE svg PUBLIC "-//W3C//DTD SVG 1.1//EN" "http://www.w3.org/Graphics/SVG/1.1/DTD/svg11.dtd">
<svg version="1.1" id="Layer_1" xmlns="http://www.w3.org/2000/svg" xmlns:xlink="http://www.w3.org/1999/xlink" x="0px" y="0px"
	 width="160px" height="150px" viewBox="0 0 160 150" enable-background="new 0 0 160 150" xml:space="preserve">
<g>
	<path fill-rule="evenodd" clip-rule="evenodd" d="M92.792,90.085c-2.447,0-4.859,0-7.548,0
		c0.321-1.824,0.569-3.571,0.941-5.292c1.385-6.378,4.072-12.279,6.642-18.232c1.769-4.096,3.536-8.223,4.869-12.472
		c2.937-9.362,0.241-17.471-6.432-24.277c-2.909-2.968-6.359-5.406-9.56-8.09c-0.711-0.598-1.405-1.218-2.141-1.857
		c-0.179,0.1-0.352,0.167-0.488,0.278c-2.865,2.333-5.735,4.658-8.584,7.009c-5.041,4.159-8.619,9.259-9.96,15.751
		c-0.942,4.561-0.275,9.026,1.36,13.285c2.001,5.211,4.289,10.313,6.479,15.452c2.359,5.532,4.316,11.182,5.175,17.164
		c0.057,0.394,0.049,0.798,0.076,1.267c-2.514,0-4.925,0-7.45,0c-0.34-1.603-0.634-3.241-1.039-4.851
		c-1.469-5.849-4.004-11.29-6.465-16.758c-2.125-4.724-4.216-9.465-5.305-14.562c-2.283-10.682,0.564-20.041,7.712-28.073
		c2.41-2.708,5.442-4.855,8.144-7.311c3.17-2.883,6.292-5.82,9.431-8.738c0.269-0.25,0.509-0.532,0.999-1.044
		c0.237,0.366,0.405,0.706,0.646,0.982c3.418,3.941,7.382,7.278,11.524,10.417c6.456,4.891,11.175,11.019,13.456,18.883
		c1.957,6.744,1.295,13.392-1.094,19.851c-1.808,4.885-3.981,9.636-6.04,14.427c-2.207,5.143-4.261,10.329-5.107,15.906
		C92.988,89.488,92.88,89.766,92.792,90.085z"/>
	<path fill-rule="evenodd" clip-rule="evenodd" d="M65.817,111.351c2.521,0,4.974,0,7.655,0
		c-0.379,1.597-0.684,3.108-1.099,4.588c-1.082,3.862-2.686,7.503-4.821,10.898c-0.396,0.629-0.405,1.067,0.021,1.694
		c2.909,4.28,6.669,7.619,11.158,10.146c0.371,0.209,1.041,0.259,1.396,0.063c4.542-2.517,8.333-5.879,11.27-10.185
		c0.406-0.596,0.447-1.047,0.043-1.695c-2.803-4.503-4.706-9.37-5.716-14.581c-0.049-0.25-0.068-0.505-0.129-0.985
		c0.947,0,1.817,0,2.689,0c1.381,0,2.763,0.021,4.143-0.007c0.583-0.012,0.835,0.177,0.977,0.777
		c1.241,5.224,3.545,9.949,6.801,14.21c0.39,0.512,0.415,0.921,0.147,1.51c-4.163,9.198-11.225,15.359-20.298,19.411
		c-0.322,0.144-0.824,0.132-1.15-0.013c-9.037-4.033-16.082-10.168-20.208-19.331c-0.175-0.39-0.218-1.046-0.006-1.372
		C63.221,119.476,63.229,119.482,65.817,111.351z"/>
	<path fill-rule="evenodd" clip-rule="evenodd" d="M58.11,90.13c-2.387,0-4.694,0.028-6.999-0.042
		c-0.233-0.007-0.588-0.577-0.65-0.928c-1.241-7.039-3.755-13.564-7.905-19.403c-2.677-3.768-5.922-6.92-10.327-8.64
		c-9.112-3.558-19.166,2.095-20.88,11.745c-0.195,1.097-0.321,2.219-0.336,3.33c-0.015,1.068,0.156,2.14,0.256,3.342
		c-2.401,0.52-4.81,1.041-7.286,1.576c-1.092-5.252-0.606-10.185,1.58-14.882c3.567-7.664,9.541-12.358,17.937-13.52
		c7.005-0.969,13.291,1.085,18.731,5.603c6.084,5.051,9.953,11.621,12.771,18.885c1.5,3.866,2.506,7.868,3.104,11.972
		C58.146,89.449,58.11,89.74,58.11,90.13z"/>
	<path fill-rule="evenodd" clip-rule="evenodd" d="M100.668,90.135c0.457-2.292,0.784-4.42,1.311-6.498
		c2.142-8.441,5.779-16.126,11.78-22.546c4.252-4.55,9.363-7.72,15.632-8.393c9.517-1.021,17.106,2.472,22.398,10.52
		c3.451,5.25,4.37,11.077,3.357,17.238c-0.028,0.175-0.122,0.339-0.234,0.64c-2.403-0.521-4.783-1.037-7.013-1.52
		c0-1.678,0.092-3.234-0.014-4.777c-0.559-8.136-7.382-15.213-16.174-14.705c-5.988,0.346-10.345,3.514-13.94,7.929
		c-4.984,6.119-7.817,13.232-9.184,20.954c-0.149,0.842-0.389,1.213-1.321,1.181C105.185,90.085,103.099,90.135,100.668,90.135z"/>
	<path fill-rule="evenodd" clip-rule="evenodd" d="M123.378,104.291c-0.6,0-1.038,0-1.477,0
		c-28.254,0-56.507,0-84.761,0c-1.586,0-1.587-0.001-1.59-1.577c-0.002-1.344-0.003-2.687,0-4.031
		c0.003-1.569,0.005-1.569,1.628-1.573c0.112,0,0.224,0,0.336,0c27.955,0,55.91,0,83.865,0c0.41,0,0.85-0.083,1.222,0.037
		c0.301,0.097,0.735,0.437,0.742,0.68C123.402,99.911,123.378,101.998,123.378,104.291z"/>
</g>
</svg>
