<?xml version="1.0"?>
<svg xmlns="http://www.w3.org/2000/svg" viewBox="0 0 64 64" width="512" height="512"><g id="Cloud_network" data-name="Cloud network"><path fill="white" d="M62,38a11.993,11.993,0,0,0-9.012-11.626A16.912,16.912,0,0,0,52.232,22H56a3,3,0,0,0,3-3V9.858a4,4,0,1,0-2,0V19a1,1,0,0,1-1,1H51.49A17.019,17.019,0,0,0,37,10.049V8a3,3,0,0,0-3-3H29.858a4,4,0,1,0,0,2H34a1,1,0,0,1,1,1v2.042A17.057,17.057,0,0,0,19.608,22.469,14,14,0,0,0,16,22c-.338,0-.668.027-1,.051V17a3,3,0,0,0-3-3H8a1,1,0,0,1-1-1V9.858a4,4,0,1,0-2,0V13a3,3,0,0,0,3,3h4a1,1,0,0,1,1,1v5.332A14,14,0,0,0,16,50h1v6a1,1,0,0,1-1,1H9.858a4,4,0,1,0,0,2H16a3,3,0,0,0,3-3V50H31v4.142a4,4,0,1,0,2,0V50H48v6a3,3,0,0,0,3,3h3.143a3.974,3.974,0,1,0-.012-2H51a1,1,0,0,1-1-1V50A12.013,12.013,0,0,0,62,38ZM56,6a2,2,0,1,1,2,2A2,2,0,0,1,56,6ZM26,8a2,2,0,1,1,2-2A2,2,0,0,1,26,8ZM4,6A2,2,0,1,1,6,8,2,2,0,0,1,4,6ZM6,60a2,2,0,1,1,2-2A2,2,0,0,1,6,60Zm28-2a2,2,0,1,1-2-2A2,2,0,0,1,34,58Zm23.731-1.982A2.064,2.064,0,0,1,58,56a2,2,0,1,1-.27.018ZM33,48V44a1,1,0,0,0-2,0v4H19V42a1,1,0,0,0-2,0v6H16a11.992,11.992,0,0,1-3-23.6V29a1,1,0,0,0,2,0V24.051c.331-.028.662-.051,1-.051a11.877,11.877,0,0,1,4,.682,1,1,0,0,0,1.315-.74A15.039,15.039,0,0,1,35,12.044V18a1,1,0,0,0,2,0V12.051A15,15,0,0,1,49.256,20H46a1,1,0,0,0,0,2h4.125A14.912,14.912,0,0,1,51,27v.18a1,1,0,0,0,.819.984A10,10,0,0,1,50,48V39a1,1,0,0,0-2,0v9Z"/><path fill="white" d="M32,25a11.96,11.96,0,0,0-8.485,3.511,1,1,0,1,0,1.411,1.418,10.008,10.008,0,0,1,14.149,0,1,1,0,1,0,1.41-1.418A11.958,11.958,0,0,0,32,25Z"/><path fill="white" d="M32,29a7.946,7.946,0,0,0-5.657,2.343,1,1,0,0,0,1.414,1.414,6,6,0,0,1,8.486,0,1,1,0,1,0,1.414-1.414A7.948,7.948,0,0,0,32,29Z"/><path fill="white" d="M32,33a3.973,3.973,0,0,0-2.827,1.173,1,1,0,0,0,1.414,1.414,2.042,2.042,0,0,1,2.826,0,1,1,0,0,0,1.414-1.414A3.975,3.975,0,0,0,32,33Z"/><circle fill="white" cx="32" cy="39" r="2"/></g></svg>
