<?xml version="1.0"?>
<svg xmlns="http://www.w3.org/2000/svg" viewBox="0 0 64 64" width="512" height="512"><g id="Cloud_network" data-name="Cloud network"><path fill="white" d="M5,8.816V13a3,3,0,0,0,3,3h4a1,1,0,0,1,1,1v5.371c.329-.078.661-.149,1-.2s.663-.093,1-.123V17a3,3,0,0,0-3-3H8a1,1,0,0,1-1-1V8.816a3,3,0,1,0-2,0Z"/><path fill="white" d="M33,55.184V50H31v5.184a3,3,0,1,0,2,0Z"/><path fill="white" d="M57.6,55.027A2.99,2.99,0,0,0,55.185,57H51a1,1,0,0,1-1-1V50H48v6a3,3,0,0,0,3,3h4.172A3,3,0,1,0,57.6,55.027Z"/><path fill="white" d="M26,9a2.99,2.99,0,0,0,2.816-2H34a1,1,0,0,1,1,1v2.044c.332-.02.663-.044,1-.044s.669.018,1,.038V8a3,3,0,0,0-3-3H28.816A2.995,2.995,0,1,0,26,9Z"/><path fill="white" d="M31,48V44a1,1,0,0,1,2,0v4H48V39a1,1,0,0,1,2,0v9a10,10,0,0,0,1.819-19.836A1,1,0,0,1,51,27.18V27a14.912,14.912,0,0,0-.875-5H46a1,1,0,0,1,0-2h3.256A15,15,0,0,0,37,12.051V18a1,1,0,0,1-2,0V12.044a15.039,15.039,0,0,0-13.69,11.9,1,1,0,0,1-1.315.74A11.877,11.877,0,0,0,16,24c-.338,0-.669.023-1,.051V29a1,1,0,0,1-2,0V24.4A11.992,11.992,0,0,0,16,48h1V42a1,1,0,0,1,2,0v6Zm1-7a2,2,0,1,1,2-2A2,2,0,0,1,32,41Zm2.827-5.413a1,1,0,0,1-1.414,0,2.042,2.042,0,0,0-2.826,0,1,1,0,0,1-1.414-1.414,3.993,3.993,0,0,1,5.654,0A1,1,0,0,1,34.827,35.587Zm2.83-2.83a1,1,0,0,1-1.414,0,6,6,0,0,0-8.486,0,1,1,0,0,1-1.414-1.414,8,8,0,0,1,11.314,0A1,1,0,0,1,37.657,32.757ZM23.515,28.511a12.008,12.008,0,0,1,16.97,0,1,1,0,1,1-1.41,1.418,10.008,10.008,0,0,0-14.149,0,1,1,0,1,1-1.411-1.418Z"/><path fill="white" d="M56,20H51.378c.16.328.311.66.449,1s.241.664.352,1H56a3,3,0,0,0,3-3V8.816a3,3,0,1,0-2,0V19A1,1,0,0,1,56,20Z"/><path fill="white" d="M17,50v6a1,1,0,0,1-1,1H8.816a3,3,0,1,0,0,2H16a3,3,0,0,0,3-3V50H17Z"/></g></svg>
